<mxfile host="app.diagrams.net" modified="2021-09-14T18:01:48.378Z" agent="5.0 (Macintosh; Intel Mac OS X 10_15_7) AppleWebKit/537.36 (KHTML, like Gecko) Chrome/93.0.4577.63 Safari/537.36" etag="2aZNDZdn3H4qn68wanxk" version="14.9.2" type="github" pages="2">
  <diagram id="kmUigxEFK028a0RhQnVS" name="Page-1">
    <mxGraphModel dx="1722" dy="941" grid="1" gridSize="10" guides="1" tooltips="1" connect="1" arrows="1" fold="1" page="1" pageScale="1" pageWidth="1654" pageHeight="1169" math="0" shadow="0">
      <root>
        <mxCell id="0" />
        <mxCell id="1" parent="0" />
        <mxCell id="JYS4BPK2dpWjeIuSEi76-3" value="Backplane" style="rounded=0;whiteSpace=wrap;html=1;fillColor=#d5e8d4;align=center;verticalAlign=top;strokeColor=#82b366;" parent="1" vertex="1">
          <mxGeometry x="290" y="470" width="420" height="320" as="geometry" />
        </mxCell>
        <mxCell id="A2itI3pVLudstaMCwzq0-24" value="Compute Tray x 1-4" style="rounded=0;whiteSpace=wrap;html=1;align=center;verticalAlign=top;" parent="1" vertex="1">
          <mxGeometry x="820" y="500" width="420" height="560" as="geometry" />
        </mxCell>
        <mxCell id="A2itI3pVLudstaMCwzq0-1" value="BMC HAT" style="rounded=0;whiteSpace=wrap;html=1;align=center;verticalAlign=top;fillColor=none;" parent="1" vertex="1">
          <mxGeometry x="840" y="530" width="380" height="200" as="geometry" />
        </mxCell>
        <mxCell id="A2itI3pVLudstaMCwzq0-3" value="" style="endArrow=none;html=1;fillColor=#f8cecc;strokeColor=#b85450;strokeWidth=3;startArrow=none;startFill=0;" parent="1" edge="1">
          <mxGeometry width="50" height="50" relative="1" as="geometry">
            <mxPoint x="330" y="590" as="sourcePoint" />
            <mxPoint x="860" y="590" as="targetPoint" />
            <Array as="points">
              <mxPoint x="660" y="590" />
              <mxPoint x="660" y="480" />
              <mxPoint x="850" y="480" />
              <mxPoint x="850" y="590" />
            </Array>
          </mxGeometry>
        </mxCell>
        <mxCell id="A2itI3pVLudstaMCwzq0-5" value="&lt;font style=&quot;font-size: 12px&quot;&gt;VIN&lt;/font&gt;" style="text;html=1;strokeColor=none;fillColor=none;align=center;verticalAlign=middle;whiteSpace=wrap;rounded=0;" parent="1" vertex="1">
          <mxGeometry x="740" y="459" width="40" height="20" as="geometry" />
        </mxCell>
        <mxCell id="A2itI3pVLudstaMCwzq0-12" value="&lt;div&gt;BMC&lt;/div&gt;&lt;div&gt;(RP2040/STM32&lt;/div&gt;&lt;div&gt;/SAMD51/ATMega)&lt;/div&gt;&lt;div&gt;&lt;br&gt;&lt;/div&gt;&lt;div&gt;USB Device&lt;/div&gt;" style="rounded=0;whiteSpace=wrap;html=1;align=center;verticalAlign=top;" parent="1" vertex="1">
          <mxGeometry x="1030" y="560" width="130" height="150" as="geometry" />
        </mxCell>
        <mxCell id="A2itI3pVLudstaMCwzq0-13" value="DCDC to 5.1V" style="rounded=0;whiteSpace=wrap;html=1;align=center;verticalAlign=middle;" parent="1" vertex="1">
          <mxGeometry x="860" y="580" width="100" height="40" as="geometry" />
        </mxCell>
        <mxCell id="A2itI3pVLudstaMCwzq0-15" value="LDO 3.3V" style="rounded=0;whiteSpace=wrap;html=1;align=center;verticalAlign=middle;" parent="1" vertex="1">
          <mxGeometry x="860" y="540" width="100" height="30" as="geometry" />
        </mxCell>
        <mxCell id="A2itI3pVLudstaMCwzq0-20" value="" style="endArrow=none;html=1;fillColor=#f8cecc;strokeWidth=3;startArrow=none;startFill=0;" parent="1" edge="1">
          <mxGeometry width="50" height="50" relative="1" as="geometry">
            <mxPoint x="330" y="610" as="sourcePoint" />
            <mxPoint x="860" y="610" as="targetPoint" />
          </mxGeometry>
        </mxCell>
        <mxCell id="A2itI3pVLudstaMCwzq0-22" value="" style="endArrow=none;html=1;strokeColor=#d79b00;strokeWidth=3;startArrow=none;startFill=0;fillColor=#ffe6cc;rounded=0;" parent="1" edge="1">
          <mxGeometry width="50" height="50" relative="1" as="geometry">
            <mxPoint x="480" y="554.8" as="sourcePoint" />
            <mxPoint x="860" y="555" as="targetPoint" />
            <Array as="points" />
          </mxGeometry>
        </mxCell>
        <mxCell id="A2itI3pVLudstaMCwzq0-25" value="&lt;font style=&quot;font-size: 12px&quot;&gt;GND&lt;/font&gt;" style="text;html=1;strokeColor=none;fillColor=none;align=center;verticalAlign=middle;whiteSpace=wrap;rounded=0;" parent="1" vertex="1">
          <mxGeometry x="780" y="590" width="40" height="20" as="geometry" />
        </mxCell>
        <mxCell id="A2itI3pVLudstaMCwzq0-27" value="&lt;font style=&quot;font-size: 12px&quot;&gt;5.1V&lt;/font&gt;" style="text;html=1;strokeColor=none;fillColor=none;align=center;verticalAlign=middle;whiteSpace=wrap;rounded=0;" parent="1" vertex="1">
          <mxGeometry x="780" y="533" width="40" height="20" as="geometry" />
        </mxCell>
        <mxCell id="JYS4BPK2dpWjeIuSEi76-7" value="USB Hub" style="rounded=0;whiteSpace=wrap;html=1;strokeColor=#000000;fillColor=#ffffff;align=center;verticalAlign=middle;" parent="1" vertex="1">
          <mxGeometry x="570" y="630" width="100" height="60" as="geometry" />
        </mxCell>
        <mxCell id="JYS4BPK2dpWjeIuSEi76-8" value="" style="shape=flexArrow;endArrow=classic;html=1;strokeWidth=1;fillColor=#fff2cc;strokeColor=#d6b656;" parent="1" edge="1">
          <mxGeometry width="50" height="50" relative="1" as="geometry">
            <mxPoint x="570" y="660" as="sourcePoint" />
            <mxPoint x="490" y="790" as="targetPoint" />
            <Array as="points">
              <mxPoint x="490" y="660" />
            </Array>
          </mxGeometry>
        </mxCell>
        <mxCell id="A2itI3pVLudstaMCwzq0-6" value="" style="shape=flexArrow;endArrow=classic;html=1;strokeWidth=1;fillColor=#fff2cc;strokeColor=#d6b656;" parent="1" target="JYS4BPK2dpWjeIuSEi76-7" edge="1">
          <mxGeometry width="50" height="50" relative="1" as="geometry">
            <mxPoint x="970" y="660" as="sourcePoint" />
            <mxPoint x="630" y="670" as="targetPoint" />
            <Array as="points" />
          </mxGeometry>
        </mxCell>
        <mxCell id="a5iX6j4bG5qRSzKylkkZ-19" value="4x" style="edgeLabel;html=1;align=center;verticalAlign=middle;resizable=0;points=[];" vertex="1" connectable="0" parent="A2itI3pVLudstaMCwzq0-6">
          <mxGeometry x="0.8804" y="1" relative="1" as="geometry">
            <mxPoint as="offset" />
          </mxGeometry>
        </mxCell>
        <mxCell id="JYS4BPK2dpWjeIuSEi76-12" value="" style="shape=flexArrow;endArrow=classic;html=1;strokeWidth=1;fillColor=#fff2cc;strokeColor=#d6b656;dashed=1;" parent="1" edge="1">
          <mxGeometry width="50" height="50" relative="1" as="geometry">
            <mxPoint x="490" y="790" as="sourcePoint" />
            <mxPoint x="860" y="820" as="targetPoint" />
            <Array as="points">
              <mxPoint x="490" y="820" />
            </Array>
          </mxGeometry>
        </mxCell>
        <mxCell id="a5iX6j4bG5qRSzKylkkZ-18" value="RMC Jumper" style="edgeLabel;html=1;align=center;verticalAlign=middle;resizable=0;points=[];" vertex="1" connectable="0" parent="JYS4BPK2dpWjeIuSEi76-12">
          <mxGeometry x="0.095" y="2" relative="1" as="geometry">
            <mxPoint as="offset" />
          </mxGeometry>
        </mxCell>
        <mxCell id="JYS4BPK2dpWjeIuSEi76-13" value="DCDC to 5.1V" style="rounded=0;whiteSpace=wrap;html=1;align=center;verticalAlign=middle;" parent="1" vertex="1">
          <mxGeometry x="380" y="535" width="100" height="40" as="geometry" />
        </mxCell>
        <mxCell id="JYS4BPK2dpWjeIuSEi76-14" value="Button" style="rounded=0;whiteSpace=wrap;html=1;strokeColor=#000000;fillColor=#ffffff;align=center;verticalAlign=middle;" parent="1" vertex="1">
          <mxGeometry x="1180" y="560" width="60" height="40" as="geometry" />
        </mxCell>
        <mxCell id="JYS4BPK2dpWjeIuSEi76-15" value="Indicator Light" style="rounded=0;whiteSpace=wrap;html=1;strokeColor=#000000;fillColor=#ffffff;align=center;verticalAlign=middle;" parent="1" vertex="1">
          <mxGeometry x="1180" y="610" width="60" height="40" as="geometry" />
        </mxCell>
        <mxCell id="a5iX6j4bG5qRSzKylkkZ-12" style="edgeStyle=orthogonalEdgeStyle;rounded=0;orthogonalLoop=1;jettySize=auto;html=1;exitX=0.5;exitY=1;exitDx=0;exitDy=0;entryX=0.5;entryY=0;entryDx=0;entryDy=0;startArrow=block;strokeColor=#000000;fillColor=none;" edge="1" parent="1" source="JYS4BPK2dpWjeIuSEi76-16" target="a5iX6j4bG5qRSzKylkkZ-6">
          <mxGeometry relative="1" as="geometry" />
        </mxCell>
        <mxCell id="a5iX6j4bG5qRSzKylkkZ-13" value="USB" style="edgeLabel;html=1;align=center;verticalAlign=middle;resizable=0;points=[];" vertex="1" connectable="0" parent="a5iX6j4bG5qRSzKylkkZ-12">
          <mxGeometry x="0.0762" y="-2" relative="1" as="geometry">
            <mxPoint x="2" y="-1" as="offset" />
          </mxGeometry>
        </mxCell>
        <mxCell id="JYS4BPK2dpWjeIuSEi76-16" value="Compute SBC&lt;br&gt;(Raspberry Pi 4)" style="rounded=0;whiteSpace=wrap;html=1;strokeColor=#6c8ebf;fillColor=#dae8fc;align=center;verticalAlign=middle;" parent="1" vertex="1">
          <mxGeometry x="865" y="780" width="330" height="90" as="geometry" />
        </mxCell>
        <mxCell id="JYS4BPK2dpWjeIuSEi76-18" value="DC&lt;br&gt;Jack" style="rounded=0;whiteSpace=wrap;html=1;strokeColor=#000000;fillColor=#ffffff;align=center;verticalAlign=middle;" parent="1" vertex="1">
          <mxGeometry x="290" y="580" width="40" height="40" as="geometry" />
        </mxCell>
        <mxCell id="JYS4BPK2dpWjeIuSEi76-19" value="" style="endArrow=none;html=1;fillColor=#f8cecc;strokeColor=#b85450;strokeWidth=3;startArrow=oval;startFill=1;rounded=0;" parent="1" edge="1">
          <mxGeometry width="50" height="50" relative="1" as="geometry">
            <mxPoint x="350" y="590" as="sourcePoint" />
            <mxPoint x="380" y="553" as="targetPoint" />
            <Array as="points">
              <mxPoint x="350" y="553" />
            </Array>
          </mxGeometry>
        </mxCell>
        <mxCell id="JYS4BPK2dpWjeIuSEi76-22" value="" style="endArrow=block;html=1;fillColor=#f8cecc;strokeColor=#b85450;strokeWidth=3;startArrow=oval;startFill=1;rounded=0;endFill=1;" parent="1" edge="1">
          <mxGeometry width="50" height="50" relative="1" as="geometry">
            <mxPoint x="350" y="553" as="sourcePoint" />
            <mxPoint x="500" y="400" as="targetPoint" />
            <Array as="points">
              <mxPoint x="350" y="400" />
            </Array>
          </mxGeometry>
        </mxCell>
        <mxCell id="VXZ5S440M9LKDPAqEZGQ-6" value="" style="shape=flexArrow;endArrow=classic;html=1;strokeWidth=1;fillColor=#fff2cc;strokeColor=#d6b656;" parent="1" edge="1">
          <mxGeometry width="50" height="50" relative="1" as="geometry">
            <mxPoint x="970" y="689" as="sourcePoint" />
            <mxPoint x="890" y="780" as="targetPoint" />
            <Array as="points">
              <mxPoint x="890" y="689" />
            </Array>
          </mxGeometry>
        </mxCell>
        <mxCell id="VXZ5S440M9LKDPAqEZGQ-8" value="USB boot" style="edgeLabel;html=1;align=center;verticalAlign=middle;resizable=0;points=[];" parent="VXZ5S440M9LKDPAqEZGQ-6" vertex="1" connectable="0">
          <mxGeometry x="-0.8232" relative="1" as="geometry">
            <mxPoint x="-33" y="1" as="offset" />
          </mxGeometry>
        </mxCell>
        <mxCell id="a5iX6j4bG5qRSzKylkkZ-25" value="Pi 4 &lt;br&gt;USB C&lt;br&gt;Connector" style="edgeLabel;html=1;align=center;verticalAlign=middle;resizable=0;points=[];labelBorderColor=none;labelBackgroundColor=none;" vertex="1" connectable="0" parent="VXZ5S440M9LKDPAqEZGQ-6">
          <mxGeometry x="0.7939" y="-4" relative="1" as="geometry">
            <mxPoint x="42" y="-2" as="offset" />
          </mxGeometry>
        </mxCell>
        <mxCell id="VXZ5S440M9LKDPAqEZGQ-7" value="" style="shape=flexArrow;endArrow=classic;html=1;strokeWidth=1;fillColor=#fff2cc;strokeColor=#d6b656;" parent="1" edge="1">
          <mxGeometry width="50" height="50" relative="1" as="geometry">
            <mxPoint x="1030" y="672" as="sourcePoint" />
            <mxPoint x="990" y="672.16" as="targetPoint" />
            <Array as="points" />
          </mxGeometry>
        </mxCell>
        <mxCell id="VXZ5S440M9LKDPAqEZGQ-9" value="" style="endArrow=none;html=1;rounded=0;fillColor=#ffe6cc;strokeColor=#d79b00;" parent="1" edge="1">
          <mxGeometry width="50" height="50" relative="1" as="geometry">
            <mxPoint x="980" y="650" as="sourcePoint" />
            <mxPoint x="1030" y="610" as="targetPoint" />
            <Array as="points">
              <mxPoint x="980" y="610" />
            </Array>
          </mxGeometry>
        </mxCell>
        <mxCell id="VXZ5S440M9LKDPAqEZGQ-1" value="" style="shape=trapezoid;perimeter=trapezoidPerimeter;whiteSpace=wrap;html=1;fixedSize=1;rotation=90;" parent="1" vertex="1">
          <mxGeometry x="935" y="660" width="87" height="25" as="geometry" />
        </mxCell>
        <mxCell id="a5iX6j4bG5qRSzKylkkZ-1" value="Ethernet Switch" style="rounded=0;whiteSpace=wrap;html=1;verticalAlign=middle;" vertex="1" parent="1">
          <mxGeometry x="500" y="370" width="720" height="80" as="geometry" />
        </mxCell>
        <mxCell id="a5iX6j4bG5qRSzKylkkZ-2" value="SSD&lt;br&gt;A/B Partitioned" style="rounded=0;whiteSpace=wrap;html=1;strokeColor=#666666;fillColor=#f5f5f5;align=center;verticalAlign=middle;fontColor=#333333;" vertex="1" parent="1">
          <mxGeometry x="865" y="970" width="330" height="70" as="geometry" />
        </mxCell>
        <mxCell id="a5iX6j4bG5qRSzKylkkZ-14" style="edgeStyle=orthogonalEdgeStyle;rounded=0;orthogonalLoop=1;jettySize=auto;html=1;exitX=0.5;exitY=1;exitDx=0;exitDy=0;entryX=0.5;entryY=0;entryDx=0;entryDy=0;startArrow=block;strokeColor=#000000;fillColor=none;" edge="1" parent="1" source="a5iX6j4bG5qRSzKylkkZ-6" target="a5iX6j4bG5qRSzKylkkZ-2">
          <mxGeometry relative="1" as="geometry" />
        </mxCell>
        <mxCell id="a5iX6j4bG5qRSzKylkkZ-15" value="SATA" style="edgeLabel;html=1;align=center;verticalAlign=middle;resizable=0;points=[];" vertex="1" connectable="0" parent="a5iX6j4bG5qRSzKylkkZ-14">
          <mxGeometry x="0.0952" y="1" relative="1" as="geometry">
            <mxPoint x="-1" y="-2" as="offset" />
          </mxGeometry>
        </mxCell>
        <mxCell id="a5iX6j4bG5qRSzKylkkZ-6" value="USB/SATA&lt;br&gt;Adapter" style="rounded=0;whiteSpace=wrap;html=1;verticalAlign=middle;" vertex="1" parent="1">
          <mxGeometry x="865" y="900" width="330" height="40" as="geometry" />
        </mxCell>
        <mxCell id="a5iX6j4bG5qRSzKylkkZ-16" value="" style="endArrow=block;html=1;fillColor=#f8cecc;strokeWidth=3;startArrow=oval;startFill=1;rounded=0;endFill=1;" edge="1" parent="1">
          <mxGeometry width="50" height="50" relative="1" as="geometry">
            <mxPoint x="370" y="610" as="sourcePoint" />
            <mxPoint x="500" y="423" as="targetPoint" />
            <Array as="points">
              <mxPoint x="370" y="423" />
            </Array>
          </mxGeometry>
        </mxCell>
        <mxCell id="a5iX6j4bG5qRSzKylkkZ-20" value="" style="shape=flexArrow;endArrow=classic;html=1;strokeWidth=1;fillColor=#dae8fc;strokeColor=#6c8ebf;startArrow=block;" edge="1" parent="1">
          <mxGeometry width="50" height="50" relative="1" as="geometry">
            <mxPoint x="1200" y="830" as="sourcePoint" />
            <mxPoint x="1220" y="410" as="targetPoint" />
            <Array as="points">
              <mxPoint x="1300" y="830" />
              <mxPoint x="1300" y="410" />
            </Array>
          </mxGeometry>
        </mxCell>
        <mxCell id="a5iX6j4bG5qRSzKylkkZ-21" value="4x" style="edgeLabel;html=1;align=center;verticalAlign=middle;resizable=0;points=[];" vertex="1" connectable="0" parent="a5iX6j4bG5qRSzKylkkZ-20">
          <mxGeometry x="-0.24" y="-1" relative="1" as="geometry">
            <mxPoint x="-51" y="-312" as="offset" />
          </mxGeometry>
        </mxCell>
        <mxCell id="a5iX6j4bG5qRSzKylkkZ-24" value="Ethernet" style="edgeLabel;html=1;align=center;verticalAlign=middle;resizable=0;points=[];horizontal=0;labelBackgroundColor=none;" vertex="1" connectable="0" parent="a5iX6j4bG5qRSzKylkkZ-20">
          <mxGeometry x="0.0956" y="-1" relative="1" as="geometry">
            <mxPoint x="-1" y="39" as="offset" />
          </mxGeometry>
        </mxCell>
        <mxCell id="a5iX6j4bG5qRSzKylkkZ-22" value="4x" style="edgeLabel;html=1;align=center;verticalAlign=middle;resizable=0;points=[];" vertex="1" connectable="0" parent="1">
          <mxGeometry x="1195" y="610" as="geometry">
            <mxPoint x="28" y="189" as="offset" />
          </mxGeometry>
        </mxCell>
        <mxCell id="a5iX6j4bG5qRSzKylkkZ-26" value="TODO:&lt;br&gt;* How would new form factor affect connections?&lt;br&gt;* USB hub power&lt;br&gt;" style="text;html=1;strokeColor=none;fillColor=none;align=left;verticalAlign=top;whiteSpace=wrap;rounded=0;labelBackgroundColor=none;" vertex="1" parent="1">
          <mxGeometry x="60" y="880" width="270" height="250" as="geometry" />
        </mxCell>
        <mxCell id="a5iX6j4bG5qRSzKylkkZ-28" value="" style="endArrow=none;html=1;strokeColor=#d79b00;strokeWidth=3;startArrow=none;startFill=0;fillColor=#ffe6cc;rounded=0;" edge="1" parent="1">
          <mxGeometry width="50" height="50" relative="1" as="geometry">
            <mxPoint x="960" y="553" as="sourcePoint" />
            <mxPoint x="980" y="553" as="targetPoint" />
            <Array as="points" />
          </mxGeometry>
        </mxCell>
      </root>
    </mxGraphModel>
  </diagram>
  <diagram id="6NxBXGfKM2cuJRmJCFxG" name="HAT">
    <mxGraphModel dx="2066" dy="1129" grid="1" gridSize="10" guides="1" tooltips="1" connect="1" arrows="1" fold="1" page="1" pageScale="1" pageWidth="1654" pageHeight="1169" math="0" shadow="0">
      <root>
        <mxCell id="tb8Lkx9Qm9kQfr8fyZOy-0" />
        <mxCell id="tb8Lkx9Qm9kQfr8fyZOy-1" parent="tb8Lkx9Qm9kQfr8fyZOy-0" />
        <mxCell id="2_bnYT3e9y1Y6GlhtHqV-0" value="HAT" style="rounded=0;whiteSpace=wrap;html=1;fillColor=#ffffff;align=center;verticalAlign=top;" parent="tb8Lkx9Qm9kQfr8fyZOy-1" vertex="1">
          <mxGeometry x="440" y="200" width="320" height="240" as="geometry" />
        </mxCell>
        <mxCell id="2_bnYT3e9y1Y6GlhtHqV-1" value="DCDC &lt;br&gt;to 5.1V" style="rounded=0;whiteSpace=wrap;html=1;fillColor=#ffffff;align=center;verticalAlign=middle;" parent="tb8Lkx9Qm9kQfr8fyZOy-1" vertex="1">
          <mxGeometry x="560" y="240" width="60" height="40" as="geometry" />
        </mxCell>
        <mxCell id="2_bnYT3e9y1Y6GlhtHqV-2" value="DCDC &lt;br&gt;to 3.3V" style="rounded=0;whiteSpace=wrap;html=1;fillColor=#ffffff;align=center;verticalAlign=middle;" parent="tb8Lkx9Qm9kQfr8fyZOy-1" vertex="1">
          <mxGeometry x="560" y="300" width="60" height="40" as="geometry" />
        </mxCell>
        <mxCell id="2_bnYT3e9y1Y6GlhtHqV-3" value="BMC" style="rounded=0;whiteSpace=wrap;html=1;fillColor=#ffffff;align=center;verticalAlign=middle;" parent="tb8Lkx9Qm9kQfr8fyZOy-1" vertex="1">
          <mxGeometry x="630" y="240" width="90" height="60" as="geometry" />
        </mxCell>
        <mxCell id="2_bnYT3e9y1Y6GlhtHqV-4" value="PAC1921" style="rounded=0;whiteSpace=wrap;html=1;fillColor=#ffffff;align=center;verticalAlign=middle;" parent="tb8Lkx9Qm9kQfr8fyZOy-1" vertex="1">
          <mxGeometry x="645" y="350" width="60" height="40" as="geometry" />
        </mxCell>
      </root>
    </mxGraphModel>
  </diagram>
</mxfile>
